<svg xmlns="http://www.w3.org/2000/svg" viewBox="0 0 48 48"><g fill="currentColor" stroke-linejoin="round" stroke-linecap="round"><path d="M39.738,16a41.745,41.745,0,0,1,5.868,6.733,2.217,2.217,0,0,1-.005,2.53C43.063,28.876,34.974,39,24.008,39A18.9,18.9,0,0,1,18,38" fill="none" stroke="currentColor" stroke-linecap="round" stroke-miterlimit="10" stroke-width="3.5"></path><path d="M12.62,35.38A38.793,38.793,0,0,1,2.4,25.255,2.217,2.217,0,0,1,2.4,22.74C4.884,19.13,12.855,9,24.008,9a21.012,21.012,0,0,1,11.378,3.613" fill="none" stroke="currentColor" stroke-miterlimit="10" stroke-width="4"></path><path d="M32.785,22A9.007,9.007,0,0,1,22,32.775" fill="none" stroke="currentColor" stroke-linecap="round" stroke-miterlimit="10" stroke-width="4"></path><line x1="4" y1="44" x2="44" y2="4" fill="none" stroke="currentColor" stroke-linecap="round" stroke-miterlimit="10" stroke-width="3.5"></line><path d="M17.64,30.36A9,9,0,0,1,30.368,17.632" fill="none" stroke="currentColor" stroke-miterlimit="10" stroke-width="3.5"></path></g></svg>